<?xml version="1.0" standalone="no"?>
<!DOCTYPE svg PUBLIC "-//W3C//DTD SVG 20010904//EN"
 "http://www.w3.org/TR/2001/REC-SVG-20010904/DTD/svg10.dtd">
<svg version="1.0" xmlns="http://www.w3.org/2000/svg"
 width="652.000000pt" height="662.000000pt" viewBox="0 0 652.000000 662.000000"
 preserveAspectRatio="xMidYMid meet">
<metadata>
Created by potrace 1.15, written by Peter Selinger 2001-2017
</metadata>
<g transform="translate(0.000000,662.000000) scale(0.100000,-0.100000)"
fill="#000000" stroke="none">
<path d="M2522 6555 c-23 -12 -51 -30 -60 -39 -10 -9 -23 -16 -28 -16 -6 0
-28 -18 -49 -40 -21 -22 -44 -40 -50 -40 -6 0 -29 -18 -50 -40 -21 -22 -44
-40 -50 -40 -6 0 -29 -18 -50 -40 -21 -22 -44 -40 -50 -40 -6 0 -24 -13 -40
-30 -16 -16 -34 -30 -41 -30 -6 0 -17 -7 -24 -15 -29 -35 -113 -65 -181 -65
-37 0 -71 -4 -74 -10 -3 -5 -44 -10 -90 -10 -46 0 -87 -4 -90 -10 -3 -5 -17
-10 -30 -10 -13 0 -27 -4 -30 -10 -3 -5 -19 -10 -34 -10 -32 0 -113 -39 -147
-70 -13 -13 -33 -28 -46 -34 -12 -6 -27 -21 -33 -33 -6 -11 -17 -28 -24 -37
-20 -24 -61 -107 -61 -122 0 -8 -9 -29 -20 -49 -14 -24 -20 -54 -20 -95 0 -32
-4 -62 -10 -65 -13 -8 -13 -392 0 -400 6 -3 10 -39 10 -80 0 -41 5 -77 10 -80
6 -3 10 -21 10 -40 0 -19 5 -37 10 -40 6 -3 10 -21 10 -40 0 -19 5 -37 10 -40
6 -3 10 -15 10 -25 0 -11 9 -35 20 -55 11 -20 20 -42 20 -49 0 -8 14 -40 31
-72 24 -46 28 -63 20 -76 -6 -10 -11 -29 -11 -43 0 -13 -9 -40 -20 -60 -11
-20 -20 -49 -20 -65 0 -16 -4 -32 -10 -35 -5 -3 -10 -21 -10 -40 0 -19 -4 -37
-10 -40 -5 -3 -10 -17 -10 -30 0 -13 -4 -27 -10 -30 -5 -3 -10 -35 -10 -70 0
-35 -4 -67 -10 -70 -6 -3 -10 -26 -10 -50 0 -24 -5 -47 -10 -50 -19 -12 -12
-141 10 -180 25 -45 25 -67 0 -90 -11 -10 -20 -23 -20 -29 0 -6 -34 -45 -76
-87 -42 -42 -81 -87 -88 -100 -6 -13 -22 -25 -34 -27 -13 -2 -22 -10 -22 -20
0 -10 -36 -53 -80 -97 -44 -44 -80 -85 -80 -92 0 -7 -7 -13 -15 -13 -9 0 -19
-10 -24 -22 -5 -13 -21 -34 -35 -47 -14 -14 -26 -30 -26 -36 0 -7 -9 -20 -20
-30 -11 -10 -20 -24 -20 -32 0 -22 -83 -17 -105 7 -10 11 -23 20 -30 20 -6 0
-24 14 -40 30 -16 17 -38 30 -50 30 -12 0 -30 9 -40 20 -23 25 -76 26 -98 2
-19 -21 -25 -156 -7 -167 6 -3 10 -21 10 -40 0 -19 5 -37 10 -40 5 -3 10 -17
10 -30 0 -13 4 -27 10 -30 5 -3 10 -21 10 -40 0 -19 5 -37 10 -40 26 -16 6
-53 -71 -131 l-82 -82 1 -145 c0 -80 5 -153 11 -163 6 -11 15 -52 21 -91 7
-40 16 -75 21 -79 5 -3 9 -18 9 -34 0 -16 5 -32 10 -35 6 -3 10 -21 10 -39 0
-19 7 -39 15 -46 8 -7 21 -25 30 -41 8 -16 22 -42 31 -59 8 -16 19 -32 23 -34
4 -3 25 -35 47 -71 21 -37 46 -71 56 -76 10 -5 18 -16 18 -25 0 -8 21 -35 47
-60 26 -25 63 -67 82 -94 20 -26 52 -70 71 -96 19 -26 48 -59 64 -73 16 -14
78 -77 139 -138 61 -62 116 -113 122 -113 6 0 27 -16 46 -36 18 -19 52 -44 75
-54 22 -11 47 -26 54 -35 7 -8 18 -15 24 -15 15 0 71 -59 79 -82 4 -10 16 -18
27 -18 12 0 48 -18 80 -40 32 -22 64 -40 70 -40 14 0 82 -44 99 -64 9 -10 29
-16 57 -16 30 0 44 -4 44 -13 0 -17 32 -47 49 -47 7 0 32 -13 56 -30 24 -16
50 -30 57 -30 7 0 24 -9 38 -20 14 -11 30 -20 35 -20 6 0 21 -9 35 -20 14 -11
33 -20 42 -20 17 0 84 -33 102 -51 6 -5 22 -9 36 -9 15 0 35 -9 45 -20 10 -11
28 -20 40 -20 27 0 45 -18 45 -46 0 -13 5 -26 10 -29 6 -3 10 -13 10 -22 0
-58 80 -102 115 -63 10 11 23 20 28 20 5 0 20 11 32 25 27 28 81 26 127 -6 18
-14 44 -19 86 -19 34 0 64 -4 67 -10 3 -5 16 -10 29 -10 12 0 26 -4 32 -9 9
-9 74 -16 259 -27 50 -3 94 -10 99 -15 14 -13 240 -11 252 1 22 22 149 8 152
-16 2 -12 12 -30 23 -40 10 -9 19 -22 19 -28 0 -28 54 -66 96 -66 41 0 94 50
94 89 0 7 9 24 20 38 11 14 20 33 20 42 1 31 41 48 118 49 46 1 84 8 105 18
17 10 72 23 121 31 49 7 94 17 100 22 6 4 34 11 62 14 30 3 79 20 119 41 36
20 75 36 84 36 10 0 26 9 36 20 10 11 28 20 40 20 11 0 37 16 55 35 56 58 79
65 211 65 68 0 120 4 124 10 3 5 16 10 29 10 12 0 35 13 51 30 39 41 30 55
-119 207 l-120 122 22 43 c12 24 23 56 24 72 4 36 47 64 100 65 21 1 53 10 73
21 20 11 48 20 64 20 15 0 36 9 46 20 10 11 28 20 40 20 13 0 28 7 35 15 7 9
32 24 54 35 23 10 52 30 65 44 14 14 29 26 35 26 15 0 246 232 246 246 0 6 9
19 20 29 11 10 20 24 20 30 0 7 7 18 15 25 17 14 45 67 45 86 0 7 9 29 20 49
11 20 20 49 20 65 0 16 5 32 10 35 6 3 10 17 10 31 0 13 5 24 10 24 6 0 10 46
10 119 0 69 -4 122 -10 126 -5 3 -10 21 -10 40 0 19 -4 37 -10 40 -5 3 -10 19
-10 35 0 16 -9 45 -20 65 -11 20 -20 44 -20 55 0 10 -4 22 -10 25 -5 3 -10 15
-10 25 0 11 -9 35 -20 55 -11 20 -20 42 -20 50 0 8 -9 30 -20 50 -11 20 -20
47 -20 60 0 13 -9 40 -20 60 -11 20 -20 49 -20 65 0 16 -4 32 -10 35 -24 15
-11 141 20 200 17 31 30 63 30 71 0 7 9 29 20 49 11 20 20 44 20 55 0 10 5 22
10 25 6 3 10 17 10 30 0 13 5 27 10 30 6 3 10 44 10 90 0 46 4 87 10 90 13 8
13 152 0 160 -5 3 -10 21 -10 40 0 19 -4 37 -10 40 -5 3 -10 14 -10 24 0 42
-57 115 -117 149 -14 7 -61 12 -122 12 -56 0 -103 4 -106 10 -3 6 -39 10 -79
10 -54 0 -77 4 -86 15 -7 9 -32 24 -54 35 -78 35 -196 181 -196 241 0 10 -4
21 -10 24 -5 3 -10 21 -10 40 0 19 -4 37 -10 40 -5 3 -10 26 -10 50 0 24 -4
47 -10 50 -6 3 -10 52 -10 110 0 58 -4 107 -10 110 -5 3 -10 30 -10 60 0 30
-4 57 -10 60 -5 3 -10 26 -10 50 0 24 -4 47 -10 50 -5 3 -10 17 -10 30 0 13
-4 27 -10 30 -5 3 -10 14 -10 23 0 22 -67 157 -85 172 -8 7 -15 18 -15 24 0 7
-18 30 -40 51 -22 21 -40 44 -40 49 0 14 -51 66 -65 66 -40 0 -114 117 -85
135 6 3 10 30 10 60 0 30 5 57 10 60 6 3 10 21 10 39 0 52 22 64 71 38 23 -12
49 -22 59 -22 11 0 22 -4 25 -10 3 -5 26 -10 50 -10 24 0 47 -4 50 -10 4 -6
55 -10 120 -10 65 0 116 4 120 10 3 6 26 10 50 10 24 0 47 5 50 10 3 6 15 10
25 10 11 0 35 9 55 20 20 11 43 20 53 20 9 0 52 35 95 76 l77 76 0 74 c0 65
-3 76 -25 99 -27 26 -107 37 -120 15 -3 -5 -21 -10 -39 -10 -20 0 -40 -8 -50
-19 -16 -18 -19 -18 -82 14 -36 18 -73 39 -82 47 -9 8 -39 25 -67 38 -27 13
-58 30 -67 38 -33 28 -152 82 -179 82 -15 0 -31 5 -34 10 -12 19 -161 12 -200
-10 -38 -22 -149 -28 -160 -10 -3 6 -44 10 -90 10 -46 0 -87 -4 -90 -10 -3 -5
-33 -10 -65 -10 -41 0 -71 -6 -95 -20 -20 -11 -44 -20 -54 -20 -10 0 -26 -9
-36 -20 -10 -11 -23 -20 -30 -20 -6 0 -29 -18 -50 -40 -21 -22 -44 -40 -50
-40 -14 0 -65 -52 -65 -66 0 -6 -13 -23 -30 -39 -16 -16 -30 -34 -30 -40 0 -7
-9 -20 -20 -30 -11 -10 -20 -23 -20 -30 0 -6 -12 -22 -26 -36 -14 -13 -38 -51
-54 -84 -16 -34 -39 -70 -51 -81 -12 -10 -25 -29 -29 -40 -17 -43 -174 -78
-195 -44 -3 6 -30 10 -60 10 -30 0 -57 5 -60 10 -3 6 -17 10 -30 10 -13 0 -27
5 -30 10 -4 6 -88 10 -220 10 -132 0 -216 -4 -220 -10 -3 -5 -21 -10 -40 -10
-19 0 -37 -4 -40 -10 -3 -5 -26 -10 -50 -10 -24 0 -47 -4 -50 -10 -3 -5 -15
-10 -26 -10 -10 0 -28 -5 -39 -12 -16 -10 -23 -9 -43 10 -13 12 -29 22 -35 22
-7 0 -12 6 -12 13 0 8 -11 24 -25 37 -70 66 -99 210 -48 236 13 6 31 18 41 27
10 10 23 17 29 17 5 0 18 9 28 20 10 11 23 20 29 20 14 0 146 132 146 146 0 6
14 23 30 39 17 16 30 34 30 41 0 6 7 17 15 24 8 7 29 41 45 75 16 34 37 68 45
75 8 7 15 22 15 35 0 12 9 30 20 40 28 25 30 174 3 196 -55 43 -64 44 -121 14z
m28 -148 c0 -35 -6 -49 -30 -72 -16 -16 -30 -38 -30 -50 0 -12 -9 -30 -20 -40
-11 -10 -20 -24 -20 -30 0 -7 -7 -18 -15 -25 -9 -7 -23 -29 -32 -49 -17 -38
-170 -201 -188 -201 -6 0 -24 -13 -40 -30 -16 -16 -34 -30 -40 -30 -7 0 -20
-9 -30 -20 -10 -11 -28 -20 -40 -20 -12 0 -30 -9 -40 -20 -10 -11 -30 -20 -45
-20 -31 0 -82 -23 -100 -45 -8 -10 -30 -15 -61 -15 -30 0 -62 -8 -84 -20 -27
-15 -54 -20 -114 -20 -86 0 -116 -17 -109 -62 3 -26 80 -40 101 -19 6 6 35 11
63 11 29 0 56 5 59 10 3 6 17 10 30 10 13 0 27 5 30 10 3 6 24 10 45 10 22 0
55 9 75 20 20 11 44 20 55 20 10 0 22 5 25 10 21 34 75 1 75 -46 0 -18 5 -36
10 -39 6 -3 10 -21 10 -39 0 -20 8 -40 20 -51 11 -10 20 -23 20 -30 0 -6 14
-24 30 -40 44 -42 39 -65 -18 -92 -26 -13 -52 -23 -57 -23 -17 0 -153 -70
-165 -85 -7 -8 -18 -15 -25 -15 -6 0 -20 -9 -30 -20 -10 -11 -23 -20 -29 -20
-7 0 -34 -23 -61 -50 -65 -66 -89 -65 -126 5 -16 29 -28 67 -28 91 -1 27 -8
47 -21 59 -18 16 -20 31 -20 120 0 108 -16 146 -55 132 -25 -10 -21 -195 5
-242 12 -22 20 -54 20 -83 0 -41 5 -53 30 -77 17 -16 30 -38 30 -50 0 -12 9
-30 20 -40 21 -19 27 -60 10 -70 -14 -9 -12 -25 3 -25 18 0 75 28 83 41 3 6
17 14 30 19 13 5 24 16 24 25 0 9 9 15 23 15 13 0 36 14 52 30 16 17 34 30 40
30 7 0 20 9 30 20 10 11 28 20 40 20 12 0 30 9 40 20 10 11 26 20 36 20 9 0
43 14 74 30 34 18 72 30 94 30 25 0 44 7 56 20 12 13 31 20 56 20 21 0 54 9
74 20 24 14 54 20 95 20 32 0 62 5 65 10 3 6 26 10 50 10 24 0 47 5 50 10 3 6
26 10 50 10 24 0 47 5 50 10 4 6 58 10 130 10 72 0 126 -4 130 -10 3 -5 17
-10 30 -10 13 0 27 -4 30 -10 3 -5 30 -10 60 -10 30 0 57 -4 60 -10 3 -5 19
-10 35 -10 16 0 45 -9 65 -20 20 -11 48 -20 64 -20 15 0 36 -9 46 -20 10 -11
28 -20 40 -20 12 0 32 -11 45 -25 30 -32 123 -78 147 -73 37 7 17 88 -22 88
-7 0 -20 9 -30 20 -10 11 -23 20 -30 20 -7 0 -19 8 -28 18 -9 10 -32 24 -52
32 -19 8 -35 19 -35 24 0 29 56 36 285 36 287 0 322 -10 255 -75 -20 -19 -30
-38 -30 -59 0 -17 -9 -40 -21 -52 -27 -28 -19 -54 17 -54 17 0 28 6 31 20 3
11 11 20 19 20 7 0 23 20 34 45 12 26 31 50 43 54 13 5 29 16 36 25 16 19 57
21 94 4 34 -17 34 -28 -3 -63 -16 -16 -30 -34 -30 -40 0 -7 -9 -20 -20 -30
-14 -13 -20 -31 -20 -60 0 -29 -6 -47 -20 -60 -40 -36 -20 -155 26 -155 17 0
44 56 44 90 0 15 9 35 20 45 14 12 20 31 20 59 0 35 7 47 52 93 58 59 67 62
93 33 10 -11 23 -20 29 -20 14 0 176 -161 176 -176 0 -6 9 -19 20 -29 11 -10
20 -28 20 -40 0 -12 9 -30 20 -40 12 -11 20 -31 20 -50 0 -19 8 -39 20 -50 11
-10 20 -28 20 -41 0 -13 5 -26 10 -29 6 -3 10 -23 10 -43 l0 -36 -35 34 c-19
19 -35 40 -35 47 0 8 -10 17 -23 22 -13 5 -29 16 -36 25 -7 9 -19 16 -26 16
-7 0 -15 9 -18 20 -4 14 -14 20 -32 20 -23 0 -25 2 -15 14 6 8 10 25 8 38 -4
30 -55 39 -65 11 -3 -10 -14 -27 -23 -38 -9 -11 -23 -34 -31 -52 -7 -17 -21
-34 -31 -36 -14 -4 -18 -15 -18 -50 0 -31 -6 -49 -20 -62 -11 -10 -20 -28 -20
-41 0 -13 -4 -26 -10 -29 -6 -4 -10 -65 -10 -150 0 -85 -4 -146 -10 -150 -5
-3 -10 -17 -10 -30 0 -13 5 -27 10 -30 6 -3 10 -35 10 -70 0 -35 5 -67 10 -70
6 -3 10 -26 10 -50 0 -24 5 -47 10 -50 6 -3 10 -17 10 -30 0 -13 5 -27 10 -30
6 -3 10 -21 10 -39 0 -20 8 -40 20 -51 11 -10 20 -28 20 -40 0 -12 9 -30 20
-40 11 -10 20 -31 20 -46 0 -16 9 -44 20 -64 l20 -35 -75 0 c-40 0 -77 -4 -80
-10 -3 -5 -17 -10 -30 -10 -13 0 -27 -4 -30 -10 -3 -5 -35 -10 -69 -10 -44 0
-67 -5 -76 -15 -16 -19 -68 -45 -90 -45 -9 0 -25 -9 -35 -20 -10 -11 -23 -20
-30 -20 -7 0 -20 -9 -30 -20 -42 -47 -65 -28 -65 54 0 41 5 78 10 81 6 3 10
21 10 40 0 19 5 37 10 40 6 3 10 52 10 110 0 58 -4 107 -10 110 -5 3 -10 30
-10 60 0 30 -4 57 -10 60 -5 3 -10 43 -10 89 0 70 -3 86 -20 101 -15 14 -20
31 -20 70 0 39 -5 56 -20 70 -11 10 -20 28 -20 40 0 12 -13 34 -30 50 -16 16
-30 38 -30 50 0 12 -9 30 -20 40 -11 10 -20 23 -20 29 0 14 -131 146 -146 146
-6 0 -19 9 -29 20 -12 13 -29 20 -44 18 -31 -4 -41 -35 -14 -44 23 -9 123
-105 123 -119 0 -7 12 -22 26 -36 14 -13 34 -43 45 -66 10 -23 23 -44 28 -48
17 -10 41 -67 41 -95 0 -15 9 -35 20 -45 14 -13 20 -31 20 -61 0 -24 5 -46 10
-49 6 -3 10 -17 10 -30 0 -13 5 -27 10 -30 6 -3 10 -44 10 -90 0 -46 5 -87 10
-90 15 -9 13 -388 -2 -403 -10 -10 -10 -17 -1 -31 8 -13 9 -21 0 -30 -8 -8 -7
-17 2 -34 30 -56 -51 -124 -94 -77 -10 11 -26 20 -36 20 -10 0 -34 9 -54 20
-20 11 -44 20 -55 20 -26 0 -26 29 0 75 27 48 27 125 0 150 -19 17 -20 17 -26
-1 -4 -11 -16 -29 -27 -42 l-21 -22 -23 22 c-39 37 -34 158 8 177 16 7 31 12
33 10 1 -2 10 -21 20 -42 21 -45 36 -40 36 14 0 72 -71 159 -130 159 -43 0
-100 -26 -100 -44 0 -7 -9 -21 -20 -31 -11 -10 -20 -28 -20 -40 0 -11 -5 -26
-12 -33 -21 -21 -38 7 -38 64 0 29 -4 56 -10 59 -6 4 -10 72 -10 170 0 98 4
166 10 170 6 3 10 35 10 70 0 35 5 67 10 70 6 3 10 21 10 40 0 19 5 37 10 40
6 3 10 17 10 30 0 13 5 27 10 30 6 3 10 15 10 25 0 11 9 35 20 55 11 20 20 48
20 62 0 26 34 73 53 73 19 0 47 33 47 55 0 12 14 34 30 50 38 36 38 78 1 83
-24 4 -121 -79 -121 -104 0 -6 -9 -19 -20 -29 -11 -10 -20 -23 -20 -30 0 -7
-9 -20 -20 -30 -11 -10 -20 -24 -20 -30 0 -7 -7 -18 -15 -25 -19 -16 -45 -68
-45 -90 0 -9 -9 -25 -20 -35 -13 -12 -20 -31 -20 -56 0 -21 -9 -54 -20 -74
-14 -24 -20 -54 -20 -95 0 -32 -4 -62 -10 -65 -5 -3 -10 -30 -10 -60 0 -30 -4
-57 -10 -60 -5 -3 -10 -39 -10 -80 0 -41 5 -77 10 -80 6 -3 10 -26 10 -50 0
-24 5 -47 10 -50 6 -3 10 -28 10 -55 0 -31 8 -63 20 -85 11 -20 20 -48 20 -64
0 -16 7 -34 15 -41 18 -15 85 -150 85 -171 0 -19 -20 -39 -39 -39 -28 0 -201
-91 -201 -106 0 -8 -10 -14 -23 -14 -13 0 -36 -13 -52 -30 -16 -17 -34 -30
-41 -30 -6 0 -17 -7 -24 -15 -28 -34 -102 -56 -115 -35 -10 15 -46 12 -67 -7
-28 -25 -22 -32 34 -35 46 -3 54 -6 66 -30 16 -33 32 -35 57 -8 10 11 23 20
30 20 7 0 20 9 30 20 10 11 24 20 30 20 7 0 18 7 25 15 7 9 32 25 55 35 23 10
48 26 55 35 7 8 21 15 31 15 10 0 34 9 54 20 20 11 44 20 55 20 10 0 22 5 25
10 3 6 21 10 40 10 19 0 37 5 40 10 8 13 212 13 220 0 3 -5 21 -10 40 -10 19
0 37 -4 40 -10 3 -6 14 -10 24 -10 23 0 75 -26 91 -45 20 -24 32 -18 95 45 33
33 64 60 71 60 6 0 19 9 29 20 10 11 26 20 36 20 9 0 43 14 74 30 31 17 65 30
75 30 11 0 22 5 25 10 3 6 21 10 40 10 19 0 37 5 40 10 8 12 115 13 115 1 0
-5 -10 -27 -22 -50 -37 -69 45 -121 193 -121 48 0 91 -4 94 -10 3 -5 30 -10
60 -10 30 0 57 -4 60 -10 3 -5 17 -10 30 -10 13 0 27 -4 30 -10 3 -5 17 -10
30 -10 13 0 27 -4 30 -10 32 -51 260 144 328 281 27 53 37 65 60 67 33 4 87
-18 87 -36 0 -7 11 -17 24 -22 94 -35 103 -284 14 -388 -8 -9 -18 -25 -21 -35
-4 -9 -17 -21 -30 -26 -12 -5 -29 -16 -36 -25 -7 -9 -19 -16 -26 -16 -7 0 -18
-7 -25 -15 -18 -22 -69 -45 -100 -45 -15 0 -35 -9 -45 -20 -10 -11 -28 -20
-41 -20 -13 0 -26 -4 -29 -10 -8 -13 -52 -13 -60 0 -4 7 -11 8 -18 1 -7 -5
-23 -11 -37 -13 -29 -4 -32 -22 -4 -26 10 -2 29 -8 41 -14 17 -8 26 -8 37 1
10 8 16 9 21 1 11 -18 71 -11 90 10 11 12 31 20 51 20 18 0 36 5 39 10 3 5 16
10 29 10 13 0 31 9 41 20 10 11 28 20 40 20 12 0 30 9 40 20 10 11 23 20 29
20 14 0 86 71 86 86 0 6 7 17 15 24 19 16 45 68 45 91 0 10 5 21 10 24 6 3 10
39 10 80 0 41 -4 77 -10 80 -5 3 -10 15 -10 26 0 42 -118 179 -154 179 -11 0
-30 10 -43 22 -20 19 -27 20 -43 10 -37 -23 -108 -6 -140 33 -14 17 -115 21
-124 6 -6 -10 14 -29 48 -46 58 -29 -7 -125 -85 -125 -10 0 -21 -4 -24 -10 -3
-5 -21 -10 -40 -10 -19 0 -37 -4 -40 -10 -3 -5 -39 -10 -80 -10 -41 0 -77 -4
-80 -10 -9 -14 -101 -12 -128 3 -12 6 -24 13 -26 14 -33 18 151 143 211 143 9
0 20 5 23 10 3 6 21 10 40 10 19 0 37 5 40 10 3 6 17 10 30 10 13 0 27 4 30
10 4 6 13 5 25 -2 15 -10 22 -10 31 -1 20 20 2 43 -33 43 -26 0 -36 6 -46 27
-14 32 -16 159 -2 168 12 8 13 52 1 59 -5 4 -4 16 2 30 12 25 37 19 37 -9 0
-6 9 -20 20 -30 11 -10 20 -23 20 -30 0 -55 175 -145 281 -145 43 0 81 -4 84
-10 3 -5 39 -10 80 -10 41 0 77 -4 80 -10 3 -5 20 -10 38 -10 21 0 41 -10 64
-32 l33 -32 0 -212 c0 -131 -4 -215 -10 -219 -5 -3 -10 -17 -10 -30 0 -13 -4
-27 -10 -30 -5 -3 -10 -26 -10 -50 0 -24 -4 -47 -10 -50 -5 -3 -10 -17 -10
-30 0 -13 -4 -27 -10 -30 -5 -3 -10 -17 -10 -30 0 -13 -4 -27 -10 -30 -5 -3
-10 -24 -10 -45 0 -22 -9 -55 -20 -75 -26 -47 -26 -106 0 -130 11 -10 20 -31
20 -46 0 -16 9 -44 20 -64 11 -20 20 -44 20 -55 0 -10 5 -22 10 -25 6 -3 10
-19 10 -35 0 -16 9 -45 20 -65 11 -20 20 -49 20 -65 0 -16 5 -32 10 -35 6 -3
10 -17 10 -30 0 -13 5 -27 10 -30 6 -3 10 -21 10 -40 0 -19 5 -37 10 -40 6 -3
10 -30 10 -60 0 -30 5 -57 10 -60 15 -9 13 -132 -2 -138 -10 -3 -10 -7 0 -19
9 -11 10 -18 2 -23 -5 -3 -10 -17 -10 -30 0 -13 -4 -27 -10 -30 -5 -3 -10 -19
-10 -35 0 -16 -9 -45 -20 -65 -11 -20 -20 -44 -20 -54 0 -10 -9 -26 -20 -36
-11 -10 -20 -23 -20 -30 0 -7 -9 -20 -20 -30 -11 -10 -20 -23 -20 -29 0 -14
-221 -236 -236 -236 -6 0 -19 -9 -29 -20 -10 -11 -24 -20 -30 -20 -7 0 -18 -6
-24 -14 -28 -34 -280 -149 -297 -136 -13 12 -9 20 35 64 28 29 51 56 51 62 0
6 14 23 30 39 17 16 30 34 30 41 0 6 6 17 14 23 17 14 126 230 126 248 0 7 9
28 20 48 11 20 20 53 20 75 0 21 5 42 10 45 6 3 10 21 10 40 0 19 5 37 10 40
6 4 10 98 10 250 0 152 -4 246 -10 250 -5 3 -10 26 -10 50 0 24 -4 47 -10 50
-5 3 -10 24 -10 45 0 22 -9 55 -20 75 -11 20 -20 48 -20 64 0 15 -9 36 -20 46
-11 10 -20 26 -20 35 0 27 -30 80 -46 80 -8 0 -14 6 -14 13 0 8 -9 22 -20 32
-30 27 -40 -8 -11 -39 11 -12 21 -34 21 -49 0 -14 9 -42 20 -62 11 -20 20 -49
20 -65 0 -16 5 -32 10 -35 6 -3 10 -17 10 -30 0 -13 5 -27 10 -30 6 -3 10 -21
10 -40 0 -19 5 -37 10 -40 6 -3 10 -39 10 -80 0 -41 5 -77 10 -80 6 -3 10 -30
10 -60 0 -30 5 -57 10 -60 6 -3 10 -39 10 -80 0 -41 -4 -77 -10 -80 -5 -3 -10
-26 -10 -50 0 -24 -4 -47 -10 -50 -6 -3 -10 -30 -10 -60 0 -30 -4 -57 -10 -60
-5 -3 -10 -15 -10 -25 0 -11 -9 -35 -20 -55 -11 -20 -20 -44 -20 -54 0 -10 -9
-26 -20 -36 -11 -10 -20 -28 -20 -40 0 -12 -9 -30 -20 -40 -11 -10 -20 -28
-20 -40 0 -12 -13 -34 -30 -50 -16 -16 -30 -34 -30 -40 0 -7 -9 -20 -20 -30
-11 -10 -20 -23 -20 -29 0 -7 -21 -32 -46 -56 -25 -25 -50 -55 -55 -68 -5 -12
-20 -27 -34 -32 -14 -5 -25 -15 -25 -22 0 -15 -40 -58 -55 -58 -7 0 -20 -9
-30 -20 -10 -11 -23 -20 -30 -20 -7 0 -20 -9 -30 -20 -10 -11 -24 -20 -30 -20
-7 0 -18 -6 -24 -14 -20 -24 -234 -126 -263 -126 -15 0 -30 -4 -33 -10 -3 -5
-17 -10 -30 -10 -13 0 -27 -4 -30 -10 -3 -5 -17 -10 -30 -10 -13 0 -27 -4 -30
-10 -3 -5 -39 -10 -80 -10 -41 0 -77 -5 -80 -10 -3 -6 -30 -10 -60 -10 -30 0
-57 -4 -60 -10 -4 -6 -55 -10 -120 -10 -65 0 -116 4 -120 10 -3 6 -30 10 -60
10 -30 0 -57 5 -60 10 -3 6 -44 10 -90 10 -46 0 -87 5 -90 10 -3 6 -17 10 -30
10 -13 0 -27 5 -30 10 -3 6 -21 10 -40 10 -19 0 -37 5 -40 10 -3 6 -19 10 -35
10 -16 0 -45 9 -65 20 -20 11 -42 20 -50 20 -8 0 -30 9 -50 20 -20 11 -41 20
-48 20 -7 0 -42 15 -78 33 -70 35 -72 44 -26 95 10 10 17 23 17 28 0 6 14 23
30 39 21 20 30 38 30 61 0 18 5 36 10 39 6 3 10 17 10 30 0 13 5 27 10 30 6 4
10 195 10 540 0 345 4 536 10 540 5 3 10 44 10 90 0 46 5 87 10 90 6 3 10 26
10 50 0 24 5 47 10 50 6 3 10 36 10 73 0 66 0 66 15 38 11 -21 15 -62 15 -157
0 -74 4 -130 10 -134 6 -3 10 -30 10 -60 0 -30 5 -57 10 -60 6 -3 10 -26 10
-50 0 -24 5 -47 10 -50 6 -3 10 -21 10 -40 0 -19 5 -37 10 -40 6 -3 10 -17 10
-30 0 -13 5 -27 10 -30 6 -3 10 -15 10 -25 0 -11 9 -35 20 -55 11 -20 20 -44
20 -54 0 -10 7 -24 15 -31 9 -7 25 -32 35 -55 10 -23 26 -48 35 -55 8 -7 15
-18 15 -25 0 -6 9 -20 20 -30 11 -10 20 -23 20 -29 0 -14 191 -206 206 -206 6
0 19 -9 29 -20 10 -11 24 -20 30 -20 7 0 18 -7 25 -15 16 -19 68 -45 91 -45
10 0 21 -4 24 -10 3 -5 17 -10 30 -10 13 0 27 -5 30 -10 3 -5 26 -10 50 -10
24 0 47 -5 50 -10 8 -13 192 -13 200 0 3 6 24 10 45 10 22 0 55 9 75 20 20 11
44 20 54 20 10 0 26 9 36 20 10 11 23 20 29 20 14 0 126 111 126 126 0 6 9 19
20 29 27 24 25 36 -10 70 -26 25 -30 36 -30 81 0 29 -4 56 -10 59 -14 8 -14
572 0 580 6 3 10 21 10 40 0 19 5 37 10 40 6 3 10 14 10 23 0 32 72 163 94
172 12 4 28 15 35 24 7 9 19 16 25 16 6 0 38 27 71 60 47 48 66 60 91 60 40 0
48 9 27 32 -24 26 -55 22 -88 -12 -16 -17 -34 -30 -40 -30 -7 0 -20 -9 -30
-20 -10 -11 -26 -20 -36 -20 -9 0 -43 -13 -74 -30 -31 -16 -63 -30 -71 -30 -7
0 -29 -9 -49 -20 -20 -11 -53 -20 -75 -20 -21 0 -42 -4 -45 -10 -3 -6 -35 -10
-70 -10 -35 0 -67 -4 -70 -10 -3 -5 -30 -10 -60 -10 -30 0 -57 5 -60 10 -3 6
-30 10 -60 10 -30 0 -57 4 -60 10 -3 6 -23 10 -45 10 -23 0 -60 12 -95 30 -31
17 -63 30 -69 30 -15 0 -101 43 -124 62 -9 8 -30 20 -47 28 -16 8 -49 32 -72
53 -26 25 -47 38 -57 34 -23 -9 -20 -38 4 -44 14 -4 20 -14 20 -36 0 -41 26
-67 65 -67 19 0 39 -8 50 -20 10 -11 23 -20 30 -20 6 0 24 -14 41 -31 17 -18
36 -28 46 -25 10 2 20 0 23 -5 8 -11 70 -41 81 -38 38 9 55 -29 23 -49 -16
-10 -18 -17 -10 -25 10 -10 44 1 79 27 19 14 82 13 94 -1 7 -9 47 -13 134 -13
67 0 125 -3 128 -8 5 -8 -111 -132 -123 -132 -5 0 -16 -9 -26 -20 -17 -19 -29
-20 -204 -18 l-186 3 -3 27 c-3 23 2 30 23 38 23 9 25 13 14 26 -11 13 -17 10
-49 -21 -38 -37 -70 -44 -89 -21 -7 8 -20 12 -29 9 -10 -2 -26 5 -36 16 -11
12 -24 21 -29 21 -5 0 -30 17 -54 37 -25 21 -57 45 -72 54 -19 11 -27 26 -31
55 -4 34 -9 40 -35 44 -17 3 -34 14 -41 27 -6 13 -18 31 -27 41 -10 10 -17 23
-17 29 0 6 -7 16 -15 23 -37 31 -61 139 -35 155 6 3 10 16 10 29 0 12 14 35
30 51 17 16 30 35 30 42 0 8 12 13 28 13 41 0 94 28 90 49 -5 25 -84 28 -112
4 -11 -11 -34 -25 -51 -33 -34 -16 -125 -99 -125 -114 0 -6 -19 -29 -41 -52
-27 -28 -40 -48 -36 -58 9 -23 38 -20 44 4 6 22 33 28 33 7 0 -8 -9 -22 -20
-32 -14 -13 -20 -31 -20 -60 0 -29 -6 -47 -20 -60 -11 -10 -20 -28 -20 -41 0
-13 -4 -26 -10 -29 -5 -3 -10 -26 -10 -50 0 -24 -4 -47 -10 -50 -5 -3 -10 -17
-10 -30 0 -13 -4 -27 -10 -30 -5 -3 -10 -39 -10 -80 0 -41 -5 -77 -10 -80 -6
-3 -10 -30 -10 -60 0 -30 -4 -57 -10 -60 -6 -4 -10 -62 -10 -140 0 -78 -4
-136 -10 -140 -6 -4 -10 -128 -10 -340 0 -212 -4 -336 -10 -340 -6 -3 -10 -17
-10 -30 0 -13 -5 -27 -10 -30 -6 -3 -10 -16 -10 -29 0 -13 -9 -31 -20 -41 -11
-10 -20 -23 -20 -29 0 -14 -61 -76 -75 -76 -7 0 -20 -9 -30 -20 -10 -11 -24
-20 -30 -20 -7 0 -18 -7 -25 -15 -14 -17 -67 -45 -86 -45 -7 0 -29 -9 -49 -20
-24 -14 -54 -20 -95 -20 -32 0 -62 -4 -65 -10 -4 -6 -88 -10 -220 -10 -132 0
-216 4 -220 10 -3 6 -39 10 -80 10 -41 0 -77 5 -80 10 -3 6 -26 10 -50 10 -24
0 -47 4 -50 10 -3 5 -16 10 -29 10 -12 0 -35 13 -51 30 -16 16 -34 30 -40 30
-6 0 -33 23 -60 50 -27 28 -54 50 -60 50 -6 0 -29 18 -50 40 -21 22 -48 40
-59 40 -25 0 -66 38 -66 62 0 10 -7 18 -17 18 -9 0 -29 12 -44 26 -15 15 -38
32 -51 38 -13 6 -24 22 -26 34 -2 13 -10 22 -21 22 -20 0 -51 32 -71 75 -16
35 -79 105 -95 105 -12 1 -115 207 -115 231 0 9 -6 22 -14 28 -21 18 -126 232
-126 258 0 12 -9 38 -20 58 -11 20 -20 53 -20 75 0 21 -4 42 -10 45 -5 3 -10
30 -10 60 0 30 -4 57 -10 60 -13 8 -13 52 0 60 6 3 10 26 10 50 0 24 5 47 10
50 6 3 10 21 10 40 0 19 5 37 10 40 6 3 10 17 10 30 0 13 4 27 10 30 5 3 10
16 10 29 0 13 9 31 20 41 11 10 20 24 20 30 0 7 7 18 15 25 9 7 25 32 35 55
10 23 26 48 35 55 8 7 15 18 15 24 0 7 23 34 50 61 28 27 50 54 50 61 0 6 9
19 20 29 11 10 20 23 20 29 0 7 21 32 46 56 25 25 50 55 54 66 8 20 60 54 82
54 4 0 8 -9 8 -21 0 -15 5 -20 22 -17 31 4 39 48 9 48 -38 0 -25 42 29 95 28
27 50 54 50 61 0 6 9 19 20 29 11 10 20 24 20 30 0 7 7 18 15 25 9 7 25 32 35
55 10 23 26 48 35 55 8 7 15 18 15 25 0 6 9 20 20 30 11 10 20 28 20 40 0 13
7 28 15 35 20 17 45 69 45 95 0 25 22 75 33 75 13 0 7 23 -10 36 -26 19 -53
17 -53 -4 0 -10 -13 -31 -30 -47 -21 -20 -30 -38 -30 -60 0 -19 -8 -39 -20
-50 -11 -10 -20 -30 -20 -44 0 -24 -1 -24 -17 -8 -15 14 -15 21 -5 37 7 13 12
60 12 129 0 63 4 112 10 116 6 3 10 17 10 30 0 13 5 27 10 30 6 3 10 39 10 79
0 60 3 76 20 91 13 12 20 31 20 56 0 22 12 60 30 94 18 34 30 72 30 94 0 25 7
44 20 56 14 13 20 31 20 60 0 29 6 47 20 60 27 25 25 35 -7 35 -34 0 -103 -65
-103 -96 0 -12 -7 -28 -16 -35 -9 -7 -20 -22 -24 -34 -8 -19 -9 -19 -9 2 -1
12 -10 38 -21 58 -14 24 -20 54 -20 95 0 32 -4 62 -10 65 -5 3 -10 17 -10 30
0 13 -5 27 -10 30 -5 3 -10 21 -10 40 0 19 -4 37 -10 40 -6 4 -10 112 -10 290
0 178 4 286 10 290 6 3 10 19 10 35 0 16 9 45 20 65 11 20 20 44 20 55 0 13 7
20 20 20 16 0 20 7 20 30 0 25 4 30 23 30 13 0 36 14 52 30 18 19 39 30 57 30
15 0 43 9 63 20 27 15 54 20 115 20 43 0 82 5 85 10 3 6 21 10 40 10 19 0 37
5 40 10 3 6 33 10 65 10 41 0 71 6 95 20 20 11 44 20 55 20 10 0 22 5 25 10 3
6 18 10 32 10 16 0 27 7 30 20 3 11 10 20 16 20 18 0 47 32 47 54 0 22 56 86
76 86 6 0 17 7 24 15 7 9 32 24 54 35 23 10 52 30 65 44 14 14 30 26 36 26 6
0 24 14 40 30 41 42 55 39 55 -13z m2057 -332 c17 -9 36 -22 43 -30 7 -8 22
-15 35 -15 12 0 30 -9 40 -20 10 -11 28 -20 40 -20 12 0 32 -12 46 -26 13 -14
51 -38 85 -54 34 -17 67 -37 74 -45 10 -12 38 -15 136 -15 123 0 124 0 124
-23 0 -37 -68 -87 -118 -87 -16 0 -37 -9 -47 -20 -15 -17 -31 -20 -100 -20
-45 0 -86 -5 -92 -11 -8 -8 -13 -8 -17 0 -4 6 -40 11 -86 11 -61 0 -88 5 -115
20 -20 11 -53 20 -74 20 -25 0 -44 7 -56 20 -10 11 -28 20 -41 20 -13 0 -26 5
-29 10 -3 6 -16 10 -29 10 -13 0 -31 9 -41 20 -11 12 -31 20 -50 20 -19 0 -39
8 -50 20 -10 11 -28 20 -41 20 -13 0 -26 5 -29 10 -3 6 -17 10 -30 10 -13 0
-27 5 -30 10 -3 6 -17 10 -30 10 -13 0 -27 5 -31 11 -4 8 -9 8 -17 0 -7 -7
-14 -7 -23 0 -8 7 -14 7 -19 -1 -3 -5 -26 -10 -50 -10 -51 0 -63 -12 -44 -46
11 -22 10 -27 -19 -57 -18 -18 -32 -38 -32 -43 0 -6 -9 -19 -20 -29 -11 -10
-20 -23 -20 -30 0 -7 -9 -20 -20 -30 -15 -14 -20 -31 -20 -72 l0 -53 -110 0
c-69 0 -118 -5 -130 -12 -45 -29 -26 44 24 91 14 14 26 30 26 36 0 7 9 20 20
30 11 10 20 23 20 29 0 7 23 34 50 61 28 27 50 54 50 59 0 14 61 76 75 76 6 0
24 14 40 30 20 21 38 30 60 30 19 0 39 8 50 20 15 17 31 20 101 20 46 0 86 5
89 10 3 6 39 10 80 10 41 0 77 -4 80 -10 3 -5 30 -10 59 -10 45 0 54 -3 59
-20 4 -15 14 -20 40 -20 20 0 39 -4 42 -10 9 -15 35 -12 42 6 6 17 -42 74 -64
74 -7 0 -13 7 -13 15 0 20 67 20 107 0z m-472 -255 c3 -5 14 -10 23 -10 9 0
74 -28 144 -62 122 -60 127 -64 128 -94 0 -19 -8 -38 -20 -49 -12 -11 -20 -31
-20 -51 0 -18 -4 -36 -10 -39 -5 -3 -10 -14 -10 -24 0 -60 -49 -104 -83 -75
-30 26 -64 44 -82 44 -8 0 -30 9 -50 20 -22 12 -54 20 -85 20 -27 0 -52 5 -55
10 -3 6 -23 10 -44 10 -97 0 -111 36 -56 145 50 101 117 165 172 165 23 0 45
-4 48 -10z m383 -990 c7 0 12 -7 12 -16 0 -9 9 -18 20 -21 11 -3 20 -12 20
-19 0 -8 11 -19 25 -24 14 -5 29 -20 34 -33 5 -12 16 -29 25 -36 9 -7 16 -23
16 -36 0 -12 9 -30 20 -40 11 -10 20 -31 20 -46 0 -16 9 -44 20 -64 11 -20 20
-49 20 -65 0 -16 5 -32 10 -35 6 -3 10 -35 10 -70 0 -35 5 -67 10 -70 6 -3 10
-35 10 -70 0 -35 5 -67 10 -70 14 -9 13 -181 -2 -205 -10 -15 -10 -22 0 -32
37 -37 -6 -118 -64 -118 -33 0 -63 23 -44 35 10 6 15 147 4 157 -3 4 -23 -3
-44 -15 -55 -29 -72 -13 -68 62 3 50 6 57 31 69 39 19 37 56 -5 76 -61 31
-108 12 -142 -56 -7 -14 -22 -24 -39 -26 -27 -3 -27 -3 -27 62 0 36 -4 68 -10
71 -5 3 -10 17 -10 30 0 13 -4 27 -10 30 -5 3 -10 44 -10 90 0 46 -4 87 -10
90 -5 3 -10 17 -10 30 0 13 5 27 10 30 6 3 10 44 10 90 0 46 5 87 10 90 6 3
10 17 10 30 0 13 5 27 10 30 6 3 10 20 10 38 0 21 10 41 32 64 l32 33 21 -20
c12 -11 27 -20 33 -20z m-4108 -1765 c7 -8 18 -15 25 -15 6 0 19 -8 28 -18 9
-10 31 -24 50 -31 41 -16 57 -47 41 -79 -15 -31 -65 -82 -79 -82 -7 0 -20 -9
-30 -20 l-18 -20 -24 22 c-13 12 -23 32 -23 44 0 13 -4 26 -10 29 -5 3 -10 21
-10 40 0 19 -4 37 -10 40 -5 3 -10 19 -10 36 0 16 -5 38 -12 48 -31 50 42 55
82 6z m80 -389 c0 -8 -4 -18 -10 -21 -6 -4 -10 -62 -10 -140 0 -78 4 -136 10
-140 6 -3 10 -26 10 -50 0 -24 5 -47 10 -50 6 -3 10 -17 10 -30 0 -13 5 -27
10 -30 6 -3 10 -17 10 -30 0 -13 5 -27 10 -30 6 -3 10 -15 10 -25 0 -11 9 -35
20 -55 11 -20 20 -44 20 -54 0 -10 9 -26 20 -36 11 -10 20 -28 20 -40 0 -13 7
-28 15 -35 8 -7 29 -40 45 -74 16 -34 38 -70 50 -81 11 -10 32 -43 47 -74 26
-56 88 -131 107 -131 14 0 96 -81 96 -95 0 -17 71 -81 108 -96 17 -8 32 -19
32 -24 0 -17 71 -80 110 -98 19 -9 51 -32 69 -51 19 -20 40 -36 46 -36 6 0 44
-34 85 -75 82 -83 154 -125 211 -125 21 0 41 -4 44 -10 3 -5 17 -10 30 -10 13
0 27 -5 30 -10 3 -6 26 -10 50 -10 24 0 47 -4 50 -10 8 -14 472 -14 480 0 3 6
24 10 45 10 22 0 55 9 75 20 20 11 46 20 58 20 26 0 200 85 217 106 17 20 80
19 80 -1 0 -9 11 -20 24 -25 13 -5 27 -13 30 -19 4 -5 44 -28 90 -51 46 -22
89 -47 96 -55 7 -8 21 -15 31 -15 10 0 34 -9 54 -20 20 -11 47 -20 60 -20 13
0 40 -9 60 -20 20 -11 53 -20 75 -20 21 0 42 -5 45 -10 3 -6 26 -10 50 -10 24
0 47 -4 50 -10 3 -6 44 -10 90 -10 46 0 87 -4 90 -10 8 -13 192 -13 200 0 3 6
44 10 90 10 46 0 87 4 90 10 3 6 26 10 50 10 24 0 47 5 50 10 3 6 24 10 45 10
22 0 55 9 75 20 20 11 51 20 69 20 19 0 60 14 91 30 31 17 62 30 68 30 19 0
154 69 167 85 7 8 18 15 25 15 6 0 20 9 30 20 52 57 87 -1 45 -75 -11 -20 -20
-44 -20 -55 0 -10 -4 -22 -10 -25 -5 -3 -10 -19 -10 -35 0 -16 -9 -45 -20 -65
-11 -20 -20 -47 -20 -60 0 -13 -9 -40 -20 -60 -11 -20 -20 -48 -20 -63 0 -43
-83 -112 -135 -112 -13 0 -40 -9 -60 -20 -20 -11 -49 -20 -65 -20 -16 0 -32
-5 -35 -10 -3 -5 -17 -10 -30 -10 -13 0 -27 -5 -30 -10 -3 -6 -21 -10 -40 -10
-19 0 -37 -4 -40 -10 -3 -5 -17 -10 -30 -10 -13 0 -27 -4 -30 -10 -3 -5 -21
-10 -40 -10 -19 0 -37 -4 -40 -10 -3 -5 -30 -10 -60 -10 -30 0 -57 -4 -60 -10
-3 -6 -17 -10 -30 -10 -13 0 -27 -5 -30 -10 -5 -8 -11 -7 -21 1 -16 13 -20
134 -4 144 26 16 -8 100 -48 121 -12 6 -30 18 -40 27 -10 10 -28 17 -40 17
-11 0 -24 5 -27 10 -8 13 -112 13 -120 0 -3 -5 -14 -10 -24 -10 -42 0 -118
-58 -145 -112 -10 -19 -8 -31 16 -77 15 -29 28 -66 28 -81 0 -16 5 -32 10 -35
8 -5 7 -11 -1 -21 -14 -17 -473 -21 -484 -4 -3 6 -44 10 -90 10 -46 0 -87 5
-90 10 -3 6 -21 10 -40 10 -19 0 -37 4 -40 10 -3 6 -26 10 -50 10 -24 0 -47 4
-50 10 -3 5 -16 10 -29 10 -12 0 -32 10 -44 23 l-22 23 30 29 c17 16 30 34 30
40 0 7 9 20 20 30 11 10 20 23 20 30 0 7 9 20 20 30 34 31 27 94 -14 134 -90
87 -273 134 -321 81 -10 -11 -24 -20 -31 -20 -26 0 -43 -63 -46 -164 -3 -114
-17 -137 -60 -101 -30 26 -64 45 -81 45 -8 0 -49 18 -92 40 -43 22 -86 40 -95
40 -10 0 -23 7 -30 15 -7 8 -50 33 -96 55 -46 23 -86 45 -89 50 -10 16 -67 40
-95 40 -19 0 -29 6 -33 20 -3 11 -13 20 -23 20 -28 0 -158 67 -184 95 -13 14
-33 25 -45 25 -12 0 -30 9 -40 20 -10 11 -23 20 -30 20 -6 0 -29 18 -50 40
-21 22 -44 40 -50 40 -17 0 -95 84 -95 103 0 9 -8 17 -17 17 -18 0 -243 217
-243 234 0 6 -12 22 -26 37 -15 15 -32 38 -38 51 -6 13 -24 29 -39 36 -16 8
-32 23 -37 35 -4 12 -29 41 -54 65 -25 23 -46 48 -46 55 0 7 -16 29 -35 47
-42 41 -65 83 -65 120 0 15 -9 35 -20 45 -11 10 -20 26 -20 36 0 10 -9 34 -20
54 -11 20 -20 49 -20 65 0 16 -4 32 -10 35 -5 3 -10 17 -10 30 0 13 -4 27 -10
30 -5 3 -10 26 -10 50 0 24 -4 47 -10 50 -5 3 -10 21 -10 40 0 19 -4 37 -10
40 -5 3 -10 35 -10 70 0 35 -4 67 -10 70 -29 18 45 135 85 135 6 0 29 18 50
40 39 40 85 54 85 26z m3366 -750 c3 -9 12 -16 19 -16 6 0 20 -9 30 -20 10
-11 23 -20 28 -20 6 0 21 -10 34 -21 28 -27 46 0 20 29 -13 14 -13 20 -3 35
15 19 36 23 36 6 0 -6 19 -9 49 -8 27 2 55 -2 63 -7 7 -6 29 -18 49 -27 20 -9
42 -23 49 -32 7 -8 17 -15 23 -15 21 0 97 -84 97 -106 0 -13 5 -26 10 -29 28
-17 -51 -75 -102 -75 -9 0 -20 -4 -23 -10 -3 -5 -17 -10 -30 -10 -13 0 -27 -4
-30 -10 -3 -5 -26 -10 -50 -10 -24 0 -47 -5 -51 -11 -4 -8 -9 -8 -17 0 -6 6
-39 11 -73 11 -35 0 -66 5 -69 10 -3 6 -19 10 -35 10 -16 0 -45 9 -65 20 -20
11 -42 20 -49 20 -19 0 -72 28 -86 45 -7 8 -18 15 -25 15 -6 0 -20 9 -30 20
-10 11 -23 20 -29 20 -7 0 -38 26 -69 58 -65 65 -64 69 15 106 20 9 39 20 42
25 11 17 266 14 272 -3z m999 -1166 c27 -27 54 -50 59 -50 15 0 76 -62 76 -77
0 -8 -13 -13 -34 -13 -19 0 -38 -4 -41 -10 -3 -6 -48 -10 -101 -10 l-94 0 0
34 c0 19 5 38 10 41 6 3 10 17 10 30 0 13 5 27 10 30 6 3 10 16 10 29 0 23 17
46 35 46 6 0 33 -22 60 -50z m-2400 -40 c3 -5 21 -10 39 -10 20 0 40 -8 51
-20 10 -11 24 -20 30 -20 46 0 35 -68 -19 -119 -14 -14 -26 -30 -26 -36 0 -6
-13 -24 -30 -40 -16 -16 -30 -33 -30 -39 0 -6 -16 -27 -36 -47 -20 -20 -41
-48 -48 -61 -17 -35 -66 -38 -66 -4 0 14 -4 28 -10 31 -5 3 -10 26 -10 50 0
24 -5 47 -11 51 -8 4 -8 9 0 17 7 7 11 55 11 122 0 104 1 111 23 121 28 15
124 17 132 4z m1268 -162 c52 -30 67 -50 67 -94 0 -24 -4 -46 -10 -49 -5 -3
-10 -21 -10 -40 0 -19 -4 -37 -10 -40 -5 -3 -10 -17 -10 -30 0 -13 -4 -27 -10
-30 -5 -3 -10 -21 -10 -39 0 -20 -8 -40 -20 -51 -12 -11 -20 -31 -20 -50 0
-38 -18 -59 -37 -44 -7 7 -13 17 -13 24 0 6 -9 20 -20 30 -11 10 -20 28 -20
40 0 12 -9 30 -20 40 -11 10 -20 26 -20 36 0 10 -9 34 -20 54 -11 20 -20 42
-20 49 0 8 -13 39 -29 69 -28 54 -29 56 -10 73 61 56 186 82 242 52z"/>
<path d="M2805 5300 c-10 -11 -28 -20 -40 -20 -12 0 -30 -9 -40 -20 -10 -11
-23 -20 -30 -20 -6 0 -22 -12 -36 -26 -13 -14 -34 -30 -46 -35 -13 -5 -23 -15
-23 -24 0 -8 -6 -15 -13 -15 -15 0 -87 -71 -87 -86 0 -6 -12 -21 -26 -35 -14
-13 -38 -51 -54 -85 -17 -34 -37 -67 -45 -74 -8 -7 -15 -25 -15 -41 0 -16 -9
-44 -20 -64 -17 -31 -20 -54 -20 -184 0 -135 2 -149 20 -166 12 -11 20 -31 20
-50 0 -38 29 -68 62 -63 l23 3 3 193 c2 170 5 196 22 227 11 20 20 46 20 59 0
27 24 79 45 96 8 7 15 22 15 35 0 12 9 30 20 40 11 10 20 23 20 30 0 6 18 29
40 50 22 21 40 44 40 50 0 14 59 70 83 78 9 4 17 13 17 22 0 10 9 15 26 15 17
0 28 6 31 20 3 12 14 20 28 20 29 0 57 33 53 62 -4 32 -66 38 -93 8z"/>
<path d="M3175 5200 c-16 -10 -39 -19 -51 -19 -11 -1 -29 -10 -39 -21 -10 -11
-28 -20 -39 -20 -28 0 -176 -148 -176 -176 0 -12 -9 -29 -20 -39 -11 -10 -20
-26 -20 -36 0 -9 -13 -43 -30 -74 -16 -31 -30 -68 -30 -81 0 -13 -9 -39 -20
-59 -16 -28 -20 -54 -20 -125 0 -49 -4 -92 -10 -95 -5 -3 -10 -44 -10 -90 0
-46 5 -87 10 -90 6 -3 10 -48 10 -99 0 -80 3 -95 20 -111 11 -10 20 -28 20
-41 0 -13 5 -26 10 -29 6 -3 10 -18 10 -32 0 -16 7 -27 19 -30 11 -3 21 -14
24 -25 4 -15 12 -19 34 -16 36 4 44 45 13 73 -17 15 -20 30 -20 91 0 40 -4 76
-10 79 -6 4 -10 78 -10 190 0 112 4 186 10 190 6 3 10 37 10 75 0 51 5 79 20
105 11 20 20 46 20 59 0 27 24 79 45 96 8 7 15 22 15 34 0 22 135 166 156 166
6 0 19 9 29 20 10 11 28 20 41 20 13 0 26 5 29 10 3 6 26 10 50 10 24 0 47 5
50 10 3 6 21 10 40 10 19 0 37 -4 40 -10 10 -17 95 -12 102 5 6 17 -23 55 -42
55 -7 0 -20 9 -30 20 -26 28 -204 28 -250 0z"/>
<path d="M1177 3393 c-18 -18 -6 -43 21 -43 32 0 52 -16 52 -42 0 -15 9 -18
50 -18 43 0 50 -3 50 -20 0 -15 7 -20 29 -20 17 0 33 -4 36 -10 3 -5 17 -10
31 -10 13 0 29 -9 36 -20 10 -16 24 -20 70 -20 47 0 60 -4 70 -20 11 -17 24
-20 90 -20 45 0 78 -4 78 -10 0 -5 14 -10 30 -10 17 0 30 -4 30 -10 0 -6 40
-10 100 -10 60 0 100 -4 100 -10 0 -6 35 -10 85 -10 50 0 85 4 85 10 0 6 34
10 83 10 71 0 87 3 102 20 16 18 31 20 120 20 86 0 104 3 118 18 22 24 21 32
-2 32 -11 0 -23 5 -26 10 -3 6 -35 10 -70 10 -35 0 -67 -4 -70 -10 -3 -5 -21
-10 -39 -10 -20 0 -40 -8 -51 -20 -20 -22 -205 -31 -205 -10 0 6 -7 10 -15 10
-8 0 -15 -4 -15 -10 0 -5 -11 -10 -25 -10 -14 0 -25 5 -25 10 0 6 -11 10 -25
10 -14 0 -25 -4 -25 -10 0 -5 -20 -10 -45 -10 -25 0 -45 5 -45 10 0 6 -13 10
-30 10 -16 0 -30 5 -30 10 0 6 -13 10 -30 10 -16 0 -30 5 -30 10 0 6 -40 10
-100 10 -89 0 -101 2 -112 20 -11 17 -24 20 -80 20 -61 0 -68 2 -68 20 0 18
-7 20 -60 20 -44 0 -60 4 -60 13 0 23 -35 47 -68 47 -25 0 -32 4 -32 20 0 20
-66 31 -83 13z"/>
<path d="M4174 3325 c-9 -22 9 -37 37 -33 16 2 24 10 24 23 0 26 -52 35 -61
10z"/>
<path d="M3396 3311 c-4 -5 -2 -12 3 -15 5 -4 12 -2 15 3 4 5 2 12 -3 15 -5 4
-12 2 -15 -3z"/>
<path d="M5105 3280 c-19 -21 -14 -50 8 -50 30 0 49 35 29 53 -18 16 -20 16
-37 -3z"/>
<path d="M2750 3125 c0 -8 7 -15 15 -15 8 0 15 7 15 15 0 8 -7 15 -15 15 -8 0
-15 -7 -15 -15z"/>
<path d="M4453 3125 c-3 -9 3 -25 13 -36 21 -24 62 5 51 35 -8 20 -56 21 -64
1z"/>
<path d="M3376 3091 c-4 -5 -2 -12 3 -15 5 -4 12 -2 15 3 4 5 2 12 -3 15 -5 4
-12 2 -15 -3z"/>
<path d="M4074 3046 c-12 -31 0 -51 31 -51 27 0 30 3 30 30 0 34 -49 51 -61
21z"/>
<path d="M2954 2986 c-4 -10 -2 -22 4 -28 8 -8 13 -7 18 6 4 10 2 22 -4 28 -8
8 -13 7 -18 -6z"/>
<path d="M3410 2896 c-5 -15 -21 -31 -35 -36 -14 -5 -25 -16 -25 -24 0 -26 17
-26 41 0 13 15 34 30 47 35 27 10 26 42 -1 47 -11 2 -20 -6 -27 -22z"/>
<path d="M3741 2666 c-9 -10 -8 -16 3 -25 10 -9 16 -8 25 3 9 10 8 16 -3 25
-10 9 -16 8 -25 -3z"/>
<path d="M4677 1814 c-4 -4 -7 -22 -7 -39 0 -19 -8 -39 -20 -50 -11 -10 -20
-23 -20 -30 0 -6 -13 -24 -30 -40 -16 -16 -30 -34 -30 -40 0 -14 -140 -151
-163 -159 -10 -3 -15 -10 -12 -16 10 -17 51 -11 70 10 10 11 24 20 30 20 7 0
19 7 26 16 7 9 23 20 36 25 13 5 23 14 23 21 0 7 10 18 22 23 13 6 28 20 34
32 6 13 17 31 25 40 53 64 77 183 39 191 -9 1 -19 0 -23 -4z"/>
</g>
</svg>
